
<svg version="1.1" xmlns="http://www.w3.org/2000/svg" xmlns:xlink="http://www.w3.org/1999/xlink" x="0px" y="0px" width="42px"
	 height="42px" viewBox="0 0 100 100" enable-background="new 0 0 100 100" xml:space="preserve">
<g enable-background="new">
	<g>
		<g>
			<path fill-rule="evenodd" clip-rule="evenodd" fill="#6FB6E5" d="M80.016,82.438c0,0-1.72-4.671-2.309-5.946
				c-0.588-1.276-2.799-2.968-3.316-3.046c-0.52-0.079-3.409-0.045-3.75,0c0,0-1.732,1.457-1.875,3.48L66.458,87.95
				c0,0-0.413,2.156-0.288,2.757c0.125,0.6,0.801,2.093,3.028,1.16c2.227-0.934,8.364-4.062,8.364-4.062
				S80.465,86.291,80.016,82.438z"/>
		</g>
	</g>
</g>
<g enable-background="new">
	<g  >
		<g>
			<path fill-rule="evenodd" clip-rule="evenodd" fill="#2266B2" d="M26.652,33.413c-0.23-0.73-1.257-2.802-1.442-3.191
				c-0.185-0.39-0.721-1.256-1.442-1.16c-0.721,0.095-1.154,1.016-1.154,1.016c-0.275,0.91-0.013,1.541,0.145,2.03
				s1.875,2.756,1.875,2.756s1.51,2.262,1.875,2.611c0.365,0.349,0.866,0.145,0.866,0.145
				C27.643,37.171,27.152,34.805,26.652,33.413z"/>
		</g>
	</g>
</g>
<g  enable-background="new">
	<g  >
		<g>
			<path fill-rule="evenodd" clip-rule="evenodd" fill="#2266B2" d="M14.537,25.146c-0.801-1.511-2.452-1.741-2.452-1.741
				c-2.019,0.703-2.164,2.901-2.164,2.901s-0.02,1.323,0.145,2.756c0.732,1.318,1.866,0.84,2.164,0.725
				c0.297-0.114,0.553-0.14,0.865-0.29c0.313-0.149,1.557-0.313,2.019-1.74S14.537,25.146,14.537,25.146z"/>
		</g>
	</g>
</g>
<g   enable-background="new">
	<g  >
		<g>
			<path fill-rule="evenodd" clip-rule="evenodd" fill="#3882C5" d="M26.796,18.618c-0.081-0.952-0.384-2.248-1.298-3.917
				c-0.914-1.668-4.039-1.74-4.039-1.74c-0.288-0.063-2.884,0.336-3.75,1.45c-0.866,1.115-1.307,2.285-1.875,4.352
				c-0.568,2.067-0.145,3.627-0.145,3.627c1.172,2.792,3.75,4.224,5.625,4.496c1.875,0.271,3.065-0.798,3.75-1.306
				s1.793-2.193,1.875-2.9C27.021,21.973,26.877,19.569,26.796,18.618z"/>
		</g>
	</g>
</g>
<g  enable-background="new">
	<g  >
		<g>
			<path fill-rule="evenodd" clip-rule="evenodd" fill="#59B431" d="M30.979,4.113c-0.353,0.236-5.142,2.862-6.202,3.916
				s-0.721,2.321-0.721,2.321c0.573,1.438,3.099,1.553,3.605,1.45c0.507-0.103,2.099-1.168,2.452-1.74
				c0.353-0.573,1.009-2.466,1.009-2.466s0.591-1.918,0.577-2.756C31.686,4,30.979,4.113,30.979,4.113z"/>
		</g>
	</g>
</g>
<g  enable-background="new">
	<g  >
		<g>
			<path fill-rule="evenodd" clip-rule="evenodd" fill="#75BD46" d="M24.488,38.635c-2.253-3.373-4.741-5.966-5.769-6.527
				c-1.027-0.563-2.957-0.979-3.75-0.726c-0.793,0.254-2.74,0.87-2.74,0.87c-2.308,0.363-4.327,2.031-4.327,2.031
				C5,36.64,6.46,40.665,6.46,40.665c0.948,3.605,2.596,4.206,2.596,4.206l9.519,2.031l5.192,1.306c0,0,5.169,1.265,5.914,1.45
				c0.744,0.186,2.242,0.181,2.452,0C32.024,49.423,26.742,42.007,24.488,38.635z"/>
		</g>
	</g>
</g>
<g  enable-background="new">
	<g >
		<g>
			<path fill-rule="evenodd" clip-rule="evenodd" fill="#B2D247" d="M19.152,52.85c-1.112-3.688-2.658-3.627-4.759-4.207
				s-9.23-2.03-9.23-2.03l0.289,5.076c-0.124,2.093,2.019,9.139,2.019,9.139c0.371,4.351,4.471,5.076,4.471,5.076
				c2.72,0.249,4.739-0.414,5.913-1.16s1.586-2.756,1.586-2.756S19.296,56.683,19.152,52.85z"/>
		</g>
	</g>
</g>
<g  enable-background="new">
	<g >
		<g>
			<path fill-rule="evenodd" clip-rule="evenodd" fill="#F6EE6B" d="M40.642,60.972c0.024-0.362-2.74-3.191-2.74-3.191
				c-1.635-2.756-6.779-5.366-6.779-5.366l-4.759-1.016c-4.063-1.185-4.615,2.031-4.615,2.031v8.558
				c0.385,1.861,3.173,2.756,3.173,2.756l9.663-1.16C41.435,63.22,40.618,61.334,40.642,60.972z"/>
		</g>
	</g>
</g>
<g  enable-background="new">
	<g >
		<g>
			<path fill-rule="evenodd" clip-rule="evenodd" fill="#5675B9" d="M19.873,75.187c0.048-4.424-1.009-5.802-1.009-5.802
				c-1.395-1.861-4.904-0.87-4.904-0.87c-2.74,0.652-1.73,3.19-1.73,3.19s4.567,6.552,5.48,7.397c0.913,0.847,1.586,0.58,1.586,0.58
				C20.402,79.175,19.873,75.187,19.873,75.187z"/>
		</g>
	</g>
</g>
<g  enable-background="new">
	<g >
		<g>
			<path fill-rule="evenodd" clip-rule="evenodd" fill="#F08921" d="M38.911,65.469l-12.692,1.305
				c-3.836,0.783-4.039,4.062-4.039,4.062l0.433,10.733c0.462,3.336,3.173,4.642,3.173,4.642c0.98,0.929,6.922,1.016,6.922,1.016
				l5.625-3.626c2.654-1.77,3.605-5.947,3.605-5.947l0.433-8.848C41.968,65.149,38.911,65.469,38.911,65.469z"/>
		</g>
	</g>
</g>
<g enable-background="new">
	<g>
		<g>
			<path fill-rule="evenodd" clip-rule="evenodd" fill="#CADD68" d="M53.735,69.463c-0.036-0.026-0.074-0.053-0.113-0.078
				l-3.462-1.741l-5.192-3.046l-0.577,11.895c0,0,0.173,1.683,2.163,1.305l7.5-4.932C54.055,72.865,55.58,70.802,53.735,69.463z"/>
		</g>
	</g>
</g>
<g enable-background="new">
	<g>
		<g>
			<path fill-rule="evenodd" clip-rule="evenodd" fill="#9AC82E" d="M64.727,72.865l-5.769,0.291
				c-1.846,0.231-3.173,1.16-3.173,1.16l-7.067,4.786c-4.183,2.002-4.904,6.963-4.904,6.963l0.145,5.222
				c1.038,2.756,2.74,3.336,2.74,3.336s8.538,0.377,11.971,0c3.432-0.377,4.903-4.352,4.903-4.352l2.308-11.894
				C66.861,72.837,64.727,72.865,64.727,72.865z"/>
		</g>
	</g>
</g>
<g enable-background="new">
	<g>
		<g>
			<path fill-rule="evenodd" clip-rule="evenodd" fill="#E94E4F" d="M38.19,86.5l-3.317,2.466c-1.514,1.645,0.577,2.756,0.577,2.756
				h3.028c1.635-0.072,2.885-1.74,2.885-1.74l0.144-2.466C40.762,84.47,38.19,86.5,38.19,86.5z"/>
		</g>
	</g>
</g>
<g  enable-background="new">
	<g>
		<g>
			<path fill-rule="evenodd" clip-rule="evenodd" fill="#3882C5" d="M94.87,67.209l-12.259,4.786
				c-2.98,1.161-2.164,4.642-2.164,4.642l2.164,5.077c2.02,1.571,3.461-0.436,3.461-0.436l9.375-12.619
				C96,66.967,94.87,67.209,94.87,67.209z"/>
		</g>
	</g>
</g>
</svg>
